ISO-10303-21;
HEADER;
/* Generated by software containing ST-Developer
 * from STEP Tools, Inc. (www.steptools.com) 
 */

FILE_DESCRIPTION(
/* description */ (''),
/* implementation_level */ '2;1');

FILE_NAME(
/* name */ 'Wire_Guide_for_20mm_Extrusion.step',
/* time_stamp */ '2026-07-29T17:16:32-06:00',
/* author */ (''),
/* organization */ (''),
/* preprocessor_version */ 'ST-DEVELOPER v20.1',
/* originating_system */ 'Autodesk Translation Framework v15.8.0.0',
/* authorisation */ '');

FILE_SCHEMA (('AUTOMOTIVE_DESIGN { 1 0 10303 214 3 1 1 }'));
ENDSEC;

DATA;
#10=MECHANICAL_DESIGN_GEOMETRIC_PRESENTATION_REPRESENTATION('',(#13),#1301);
#11=SHAPE_REPRESENTATION_RELATIONSHIP('SRR','None',#1308,#12);
#12=ADVANCED_BREP_SHAPE_REPRESENTATION('',(#14),#1300);
#13=STYLED_ITEM('',(#1317),#14);
#14=MANIFOLD_SOLID_BREP('Body1',#697);
#15=(
BOUNDED_CURVE()
B_SPLINE_CURVE(5,(#1150,#1151,#1152,#1153,#1154,#1155,#1156,#1157,#1158,
#1159),.UNSPECIFIED.,.F.,.F.)
B_SPLINE_CURVE_WITH_KNOTS((6,1,1,1,1,6),(0.,0.2,0.4,0.6,0.8,1.),
 .UNSPECIFIED.)
CURVE()
GEOMETRIC_REPRESENTATION_ITEM()
RATIONAL_B_SPLINE_CURVE((1.,1.,1.,1.,1.,1.,1.,1.,1.,1.))
REPRESENTATION_ITEM('')
);
#16=(
BOUNDED_CURVE()
B_SPLINE_CURVE(5,(#1161,#1162,#1163,#1164,#1165,#1166,#1167,#1168,#1169,
#1170),.UNSPECIFIED.,.F.,.F.)
B_SPLINE_CURVE_WITH_KNOTS((6,1,1,1,1,6),(-1.,-0.8,-0.6,-0.4,-0.2,0.),
 .UNSPECIFIED.)
CURVE()
GEOMETRIC_REPRESENTATION_ITEM()
RATIONAL_B_SPLINE_CURVE((1.,1.,1.,1.,1.,1.,1.,1.,1.,1.))
REPRESENTATION_ITEM('')
);
#17=(
BOUNDED_CURVE()
B_SPLINE_CURVE(5,(#1193,#1194,#1195,#1196,#1197,#1198,#1199,#1200,#1201,
#1202),.UNSPECIFIED.,.F.,.F.)
B_SPLINE_CURVE_WITH_KNOTS((6,1,1,1,1,6),(0.,0.2,0.4,0.6,0.8,1.),
 .UNSPECIFIED.)
CURVE()
GEOMETRIC_REPRESENTATION_ITEM()
RATIONAL_B_SPLINE_CURVE((1.,1.,1.,1.,1.,1.,1.,1.,1.,1.))
REPRESENTATION_ITEM('')
);
#18=(
BOUNDED_CURVE()
B_SPLINE_CURVE(5,(#1204,#1205,#1206,#1207,#1208,#1209,#1210,#1211,#1212,
#1213),.UNSPECIFIED.,.F.,.F.)
B_SPLINE_CURVE_WITH_KNOTS((6,1,1,1,1,6),(0.,0.2,0.4,0.6,0.8,1.),
 .UNSPECIFIED.)
CURVE()
GEOMETRIC_REPRESENTATION_ITEM()
RATIONAL_B_SPLINE_CURVE((1.,1.,1.,1.,1.,1.,1.,1.,1.,1.))
REPRESENTATION_ITEM('')
);
#19=(
BOUNDED_SURFACE()
B_SPLINE_SURFACE(5,1,((#1129,#1130),(#1131,#1132),(#1133,#1134),(#1135,
#1136),(#1137,#1138),(#1139,#1140),(#1141,#1142),(#1143,#1144),(#1145,#1146),
(#1147,#1148)),.UNSPECIFIED.,.F.,.F.,.F.)
B_SPLINE_SURFACE_WITH_KNOTS((6,1,1,1,1,6),(2,2),(-1.,-0.8,-0.6,-0.4,-0.2,
0.),(0.,2.),.UNSPECIFIED.)
GEOMETRIC_REPRESENTATION_ITEM()
RATIONAL_B_SPLINE_SURFACE(((1.,1.),(1.,1.),(1.,1.),(1.,1.),(1.,1.),(1.,
1.),(1.,1.),(1.,1.),(1.,1.),(1.,1.)))
REPRESENTATION_ITEM('')
SURFACE()
);
#20=(
BOUNDED_SURFACE()
B_SPLINE_SURFACE(5,1,((#1172,#1173),(#1174,#1175),(#1176,#1177),(#1178,
#1179),(#1180,#1181),(#1182,#1183),(#1184,#1185),(#1186,#1187),(#1188,#1189),
(#1190,#1191)),.UNSPECIFIED.,.F.,.F.,.F.)
B_SPLINE_SURFACE_WITH_KNOTS((6,1,1,1,1,6),(2,2),(0.,0.2,0.4,0.6,0.8,1.),
(0.,2.),.UNSPECIFIED.)
GEOMETRIC_REPRESENTATION_ITEM()
RATIONAL_B_SPLINE_SURFACE(((1.,1.),(1.,1.),(1.,1.),(1.,1.),(1.,1.),(1.,
1.),(1.,1.),(1.,1.),(1.,1.),(1.,1.)))
REPRESENTATION_ITEM('')
SURFACE()
);
#21=PLANE('',#717);
#22=PLANE('',#721);
#23=PLANE('',#725);
#24=PLANE('',#729);
#25=PLANE('',#733);
#26=PLANE('',#737);
#27=PLANE('',#741);
#28=PLANE('',#748);
#29=PLANE('',#752);
#30=PLANE('',#756);
#31=PLANE('',#760);
#32=PLANE('',#764);
#33=PLANE('',#768);
#34=PLANE('',#772);
#35=PLANE('',#773);
#36=PLANE('',#774);
#37=B_SPLINE_CURVE_WITH_KNOTS('',3,(#992,#993,#994,#995,#996,#997,#998),
 .UNSPECIFIED.,.F.,.F.,(4,3,4),(0.,0.337778786853105,1.),.UNSPECIFIED.);
#38=B_SPLINE_CURVE_WITH_KNOTS('',3,(#1000,#1001,#1002,#1003,#1004,#1005,
#1006),.UNSPECIFIED.,.F.,.F.,(4,3,4),(-1.,-0.337778786853105,0.),
 .UNSPECIFIED.);
#39=B_SPLINE_CURVE_WITH_KNOTS('',3,(#1023,#1024,#1025,#1026,#1027,#1028,
#1029),.UNSPECIFIED.,.F.,.F.,(4,3,4),(0.,0.337778786853105,1.),
 .UNSPECIFIED.);
#40=B_SPLINE_CURVE_WITH_KNOTS('',3,(#1031,#1032,#1033,#1034,#1035,#1036,
#1037),.UNSPECIFIED.,.F.,.F.,(4,3,4),(0.,0.337778786853105,1.),
 .UNSPECIFIED.);
#41=B_SPLINE_SURFACE_WITH_KNOTS('',3,1,((#977,#978),(#979,#980),(#981,#982),
(#983,#984),(#985,#986),(#987,#988),(#989,#990)),.UNSPECIFIED.,.F.,.F.,
 .F.,(4,3,4),(2,2),(-1.,-0.337778786853105,0.),(0.,2.),.UNSPECIFIED.);
#42=B_SPLINE_SURFACE_WITH_KNOTS('',3,1,((#1008,#1009),(#1010,#1011),(#1012,
#1013),(#1014,#1015),(#1016,#1017),(#1018,#1019),(#1020,#1021)),
 .UNSPECIFIED.,.F.,.F.,.F.,(4,3,4),(2,2),(0.,0.337778786853105,1.),(0.,
2.),.UNSPECIFIED.);
#43=FACE_OUTER_BOUND('',#79,.T.);
#44=FACE_OUTER_BOUND('',#80,.T.);
#45=FACE_OUTER_BOUND('',#81,.T.);
#46=FACE_OUTER_BOUND('',#82,.T.);
#47=FACE_OUTER_BOUND('',#83,.T.);
#48=FACE_OUTER_BOUND('',#84,.T.);
#49=FACE_OUTER_BOUND('',#85,.T.);
#50=FACE_OUTER_BOUND('',#86,.T.);
#51=FACE_OUTER_BOUND('',#87,.T.);
#52=FACE_OUTER_BOUND('',#88,.T.);
#53=FACE_OUTER_BOUND('',#89,.T.);
#54=FACE_OUTER_BOUND('',#90,.T.);
#55=FACE_OUTER_BOUND('',#91,.T.);
#56=FACE_OUTER_BOUND('',#92,.T.);
#57=FACE_OUTER_BOUND('',#93,.T.);
#58=FACE_OUTER_BOUND('',#94,.T.);
#59=FACE_OUTER_BOUND('',#95,.T.);
#60=FACE_OUTER_BOUND('',#96,.T.);
#61=FACE_OUTER_BOUND('',#97,.T.);
#62=FACE_OUTER_BOUND('',#98,.T.);
#63=FACE_OUTER_BOUND('',#99,.T.);
#64=FACE_OUTER_BOUND('',#100,.T.);
#65=FACE_OUTER_BOUND('',#101,.T.);
#66=FACE_OUTER_BOUND('',#102,.T.);
#67=FACE_OUTER_BOUND('',#103,.T.);
#68=FACE_OUTER_BOUND('',#104,.T.);
#69=FACE_OUTER_BOUND('',#105,.T.);
#70=FACE_OUTER_BOUND('',#106,.T.);
#71=FACE_OUTER_BOUND('',#107,.T.);
#72=FACE_OUTER_BOUND('',#108,.T.);
#73=FACE_OUTER_BOUND('',#109,.T.);
#74=FACE_OUTER_BOUND('',#110,.T.);
#75=FACE_OUTER_BOUND('',#111,.T.);
#76=FACE_OUTER_BOUND('',#112,.T.);
#77=FACE_OUTER_BOUND('',#113,.T.);
#78=FACE_OUTER_BOUND('',#114,.T.);
#79=EDGE_LOOP('',(#441,#442,#443,#444));
#80=EDGE_LOOP('',(#445,#446,#447,#448));
#81=EDGE_LOOP('',(#449,#450,#451,#452));
#82=EDGE_LOOP('',(#453,#454,#455,#456));
#83=EDGE_LOOP('',(#457,#458,#459,#460));
#84=EDGE_LOOP('',(#461,#462,#463,#464));
#85=EDGE_LOOP('',(#465,#466,#467,#468));
#86=EDGE_LOOP('',(#469,#470,#471,#472));
#87=EDGE_LOOP('',(#473,#474,#475,#476));
#88=EDGE_LOOP('',(#477,#478,#479,#480));
#89=EDGE_LOOP('',(#481,#482,#483,#484));
#90=EDGE_LOOP('',(#485,#486,#487,#488));
#91=EDGE_LOOP('',(#489,#490,#491,#492));
#92=EDGE_LOOP('',(#493,#494,#495,#496));
#93=EDGE_LOOP('',(#497,#498,#499,#500));
#94=EDGE_LOOP('',(#501,#502,#503,#504));
#95=EDGE_LOOP('',(#505,#506,#507,#508));
#96=EDGE_LOOP('',(#509,#510,#511,#512));
#97=EDGE_LOOP('',(#513,#514,#515,#516));
#98=EDGE_LOOP('',(#517,#518,#519,#520));
#99=EDGE_LOOP('',(#521,#522,#523,#524));
#100=EDGE_LOOP('',(#525,#526,#527,#528));
#101=EDGE_LOOP('',(#529,#530,#531,#532));
#102=EDGE_LOOP('',(#533,#534,#535,#536));
#103=EDGE_LOOP('',(#537,#538,#539,#540));
#104=EDGE_LOOP('',(#541,#542,#543,#544));
#105=EDGE_LOOP('',(#545,#546,#547,#548));
#106=EDGE_LOOP('',(#549,#550,#551,#552));
#107=EDGE_LOOP('',(#553,#554,#555,#556));
#108=EDGE_LOOP('',(#557,#558,#559,#560));
#109=EDGE_LOOP('',(#561,#562,#563,#564));
#110=EDGE_LOOP('',(#565,#566,#567,#568));
#111=EDGE_LOOP('',(#569,#570,#571,#572));
#112=EDGE_LOOP('',(#573,#574,#575,#576));
#113=EDGE_LOOP('',(#577,#578,#579,#580,#581,#582,#583,#584,#585,#586,#587,
#588,#589,#590,#591,#592,#593,#594,#595,#596,#597,#598,#599,#600,#601,#602,
#603,#604,#605,#606,#607,#608,#609,#610));
#114=EDGE_LOOP('',(#611,#612,#613,#614,#615,#616,#617,#618,#619,#620,#621,
#622,#623,#624,#625,#626,#627,#628,#629,#630,#631,#632,#633,#634,#635,#636,
#637,#638,#639,#640,#641,#642,#643,#644));
#115=LINE('',#973,#177);
#116=LINE('',#976,#178);
#117=LINE('',#1007,#179);
#118=LINE('',#1038,#180);
#119=LINE('',#1044,#181);
#120=LINE('',#1047,#182);
#121=LINE('',#1049,#183);
#122=LINE('',#1050,#184);
#123=LINE('',#1056,#185);
#124=LINE('',#1059,#186);
#125=LINE('',#1061,#187);
#126=LINE('',#1062,#188);
#127=LINE('',#1068,#189);
#128=LINE('',#1071,#190);
#129=LINE('',#1073,#191);
#130=LINE('',#1074,#192);
#131=LINE('',#1080,#193);
#132=LINE('',#1083,#194);
#133=LINE('',#1085,#195);
#134=LINE('',#1086,#196);
#135=LINE('',#1092,#197);
#136=LINE('',#1095,#198);
#137=LINE('',#1097,#199);
#138=LINE('',#1098,#200);
#139=LINE('',#1104,#201);
#140=LINE('',#1107,#202);
#141=LINE('',#1109,#203);
#142=LINE('',#1110,#204);
#143=LINE('',#1116,#205);
#144=LINE('',#1119,#206);
#145=LINE('',#1121,#207);
#146=LINE('',#1122,#208);
#147=LINE('',#1128,#209);
#148=LINE('',#1171,#210);
#149=LINE('',#1214,#211);
#150=LINE('',#1220,#212);
#151=LINE('',#1223,#213);
#152=LINE('',#1225,#214);
#153=LINE('',#1226,#215);
#154=LINE('',#1232,#216);
#155=LINE('',#1235,#217);
#156=LINE('',#1237,#218);
#157=LINE('',#1238,#219);
#158=LINE('',#1244,#220);
#159=LINE('',#1247,#221);
#160=LINE('',#1249,#222);
#161=LINE('',#1250,#223);
#162=LINE('',#1256,#224);
#163=LINE('',#1259,#225);
#164=LINE('',#1261,#226);
#165=LINE('',#1262,#227);
#166=LINE('',#1268,#228);
#167=LINE('',#1271,#229);
#168=LINE('',#1273,#230);
#169=LINE('',#1274,#231);
#170=LINE('',#1280,#232);
#171=LINE('',#1283,#233);
#172=LINE('',#1285,#234);
#173=LINE('',#1286,#235);
#174=LINE('',#1292,#236);
#175=LINE('',#1294,#237);
#176=LINE('',#1295,#238);
#177=VECTOR('',#781,10.);
#178=VECTOR('',#784,10.);
#179=VECTOR('',#785,10.);
#180=VECTOR('',#786,10.);
#181=VECTOR('',#793,10.);
#182=VECTOR('',#796,10.);
#183=VECTOR('',#797,10.);
#184=VECTOR('',#798,10.);
#185=VECTOR('',#805,10.);
#186=VECTOR('',#808,10.);
#187=VECTOR('',#809,10.);
#188=VECTOR('',#810,10.);
#189=VECTOR('',#817,10.);
#190=VECTOR('',#820,10.);
#191=VECTOR('',#821,10.);
#192=VECTOR('',#822,10.);
#193=VECTOR('',#829,10.);
#194=VECTOR('',#832,10.);
#195=VECTOR('',#833,10.);
#196=VECTOR('',#834,10.);
#197=VECTOR('',#841,10.);
#198=VECTOR('',#844,10.);
#199=VECTOR('',#845,10.);
#200=VECTOR('',#846,10.);
#201=VECTOR('',#853,10.);
#202=VECTOR('',#856,10.);
#203=VECTOR('',#857,10.);
#204=VECTOR('',#858,10.);
#205=VECTOR('',#865,10.);
#206=VECTOR('',#868,10.);
#207=VECTOR('',#869,10.);
#208=VECTOR('',#870,10.);
#209=VECTOR('',#877,10.);
#210=VECTOR('',#878,10.);
#211=VECTOR('',#879,10.);
#212=VECTOR('',#886,10.);
#213=VECTOR('',#889,10.);
#214=VECTOR('',#890,10.);
#215=VECTOR('',#891,10.);
#216=VECTOR('',#898,10.);
#217=VECTOR('',#901,10.);
#218=VECTOR('',#902,10.);
#219=VECTOR('',#903,10.);
#220=VECTOR('',#910,10.);
#221=VECTOR('',#913,10.);
#222=VECTOR('',#914,10.);
#223=VECTOR('',#915,10.);
#224=VECTOR('',#922,10.);
#225=VECTOR('',#925,10.);
#226=VECTOR('',#926,10.);
#227=VECTOR('',#927,10.);
#228=VECTOR('',#934,10.);
#229=VECTOR('',#937,10.);
#230=VECTOR('',#938,10.);
#231=VECTOR('',#939,10.);
#232=VECTOR('',#946,10.);
#233=VECTOR('',#949,10.);
#234=VECTOR('',#950,10.);
#235=VECTOR('',#951,10.);
#236=VECTOR('',#958,10.);
#237=VECTOR('',#961,10.);
#238=VECTOR('',#962,10.);
#239=CIRCLE('',#712,1.10000000000085);
#240=CIRCLE('',#713,1.10000000000085);
#241=CIRCLE('',#715,1.10000000000037);
#242=CIRCLE('',#716,1.10000000000037);
#243=CIRCLE('',#719,2.15000000000001);
#244=CIRCLE('',#720,2.15000000000001);
#245=CIRCLE('',#723,0.600000000000001);
#246=CIRCLE('',#724,0.600000000000001);
#247=CIRCLE('',#727,0.600000000000001);
#248=CIRCLE('',#728,0.600000000000001);
#249=CIRCLE('',#731,0.6);
#250=CIRCLE('',#732,0.6);
#251=CIRCLE('',#735,0.3);
#252=CIRCLE('',#736,0.3);
#253=CIRCLE('',#739,1.25000000000001);
#254=CIRCLE('',#740,1.25000000000001);
#255=CIRCLE('',#743,2.00000000000043);
#256=CIRCLE('',#744,2.00000000000043);
#257=CIRCLE('',#746,2.00000000000044);
#258=CIRCLE('',#747,2.00000000000044);
#259=CIRCLE('',#750,1.25000000000001);
#260=CIRCLE('',#751,1.25000000000001);
#261=CIRCLE('',#754,0.3);
#262=CIRCLE('',#755,0.3);
#263=CIRCLE('',#758,0.6);
#264=CIRCLE('',#759,0.6);
#265=CIRCLE('',#762,0.600000000000001);
#266=CIRCLE('',#763,0.600000000000001);
#267=CIRCLE('',#766,0.600000000000001);
#268=CIRCLE('',#767,0.600000000000001);
#269=CIRCLE('',#770,2.15000000000001);
#270=CIRCLE('',#771,2.15000000000001);
#271=VERTEX_POINT('',#969);
#272=VERTEX_POINT('',#970);
#273=VERTEX_POINT('',#972);
#274=VERTEX_POINT('',#974);
#275=VERTEX_POINT('',#991);
#276=VERTEX_POINT('',#999);
#277=VERTEX_POINT('',#1022);
#278=VERTEX_POINT('',#1030);
#279=VERTEX_POINT('',#1040);
#280=VERTEX_POINT('',#1042);
#281=VERTEX_POINT('',#1046);
#282=VERTEX_POINT('',#1048);
#283=VERTEX_POINT('',#1052);
#284=VERTEX_POINT('',#1054);
#285=VERTEX_POINT('',#1058);
#286=VERTEX_POINT('',#1060);
#287=VERTEX_POINT('',#1064);
#288=VERTEX_POINT('',#1066);
#289=VERTEX_POINT('',#1070);
#290=VERTEX_POINT('',#1072);
#291=VERTEX_POINT('',#1076);
#292=VERTEX_POINT('',#1078);
#293=VERTEX_POINT('',#1082);
#294=VERTEX_POINT('',#1084);
#295=VERTEX_POINT('',#1088);
#296=VERTEX_POINT('',#1090);
#297=VERTEX_POINT('',#1094);
#298=VERTEX_POINT('',#1096);
#299=VERTEX_POINT('',#1100);
#300=VERTEX_POINT('',#1102);
#301=VERTEX_POINT('',#1106);
#302=VERTEX_POINT('',#1108);
#303=VERTEX_POINT('',#1112);
#304=VERTEX_POINT('',#1114);
#305=VERTEX_POINT('',#1118);
#306=VERTEX_POINT('',#1120);
#307=VERTEX_POINT('',#1124);
#308=VERTEX_POINT('',#1126);
#309=VERTEX_POINT('',#1149);
#310=VERTEX_POINT('',#1160);
#311=VERTEX_POINT('',#1192);
#312=VERTEX_POINT('',#1203);
#313=VERTEX_POINT('',#1216);
#314=VERTEX_POINT('',#1218);
#315=VERTEX_POINT('',#1222);
#316=VERTEX_POINT('',#1224);
#317=VERTEX_POINT('',#1228);
#318=VERTEX_POINT('',#1230);
#319=VERTEX_POINT('',#1234);
#320=VERTEX_POINT('',#1236);
#321=VERTEX_POINT('',#1240);
#322=VERTEX_POINT('',#1242);
#323=VERTEX_POINT('',#1246);
#324=VERTEX_POINT('',#1248);
#325=VERTEX_POINT('',#1252);
#326=VERTEX_POINT('',#1254);
#327=VERTEX_POINT('',#1258);
#328=VERTEX_POINT('',#1260);
#329=VERTEX_POINT('',#1264);
#330=VERTEX_POINT('',#1266);
#331=VERTEX_POINT('',#1270);
#332=VERTEX_POINT('',#1272);
#333=VERTEX_POINT('',#1276);
#334=VERTEX_POINT('',#1278);
#335=VERTEX_POINT('',#1282);
#336=VERTEX_POINT('',#1284);
#337=VERTEX_POINT('',#1288);
#338=VERTEX_POINT('',#1290);
#339=EDGE_CURVE('',#271,#272,#239,.T.);
#340=EDGE_CURVE('',#271,#273,#115,.T.);
#341=EDGE_CURVE('',#274,#273,#240,.T.);
#342=EDGE_CURVE('',#272,#274,#116,.T.);
#343=EDGE_CURVE('',#272,#275,#37,.T.);
#344=EDGE_CURVE('',#276,#274,#38,.T.);
#345=EDGE_CURVE('',#275,#276,#117,.T.);
#346=EDGE_CURVE('',#277,#275,#39,.T.);
#347=EDGE_CURVE('',#278,#276,#40,.T.);
#348=EDGE_CURVE('',#277,#278,#118,.T.);
#349=EDGE_CURVE('',#277,#279,#241,.T.);
#350=EDGE_CURVE('',#280,#278,#242,.T.);
#351=EDGE_CURVE('',#279,#280,#119,.T.);
#352=EDGE_CURVE('',#279,#281,#120,.T.);
#353=EDGE_CURVE('',#282,#280,#121,.T.);
#354=EDGE_CURVE('',#281,#282,#122,.T.);
#355=EDGE_CURVE('',#283,#281,#243,.T.);
#356=EDGE_CURVE('',#284,#282,#244,.T.);
#357=EDGE_CURVE('',#283,#284,#123,.T.);
#358=EDGE_CURVE('',#285,#283,#124,.T.);
#359=EDGE_CURVE('',#286,#284,#125,.T.);
#360=EDGE_CURVE('',#285,#286,#126,.T.);
#361=EDGE_CURVE('',#287,#285,#245,.T.);
#362=EDGE_CURVE('',#288,#286,#246,.T.);
#363=EDGE_CURVE('',#287,#288,#127,.T.);
#364=EDGE_CURVE('',#289,#287,#128,.T.);
#365=EDGE_CURVE('',#290,#288,#129,.T.);
#366=EDGE_CURVE('',#289,#290,#130,.T.);
#367=EDGE_CURVE('',#291,#289,#247,.T.);
#368=EDGE_CURVE('',#292,#290,#248,.T.);
#369=EDGE_CURVE('',#291,#292,#131,.T.);
#370=EDGE_CURVE('',#293,#291,#132,.T.);
#371=EDGE_CURVE('',#294,#292,#133,.T.);
#372=EDGE_CURVE('',#293,#294,#134,.T.);
#373=EDGE_CURVE('',#295,#293,#249,.T.);
#374=EDGE_CURVE('',#296,#294,#250,.T.);
#375=EDGE_CURVE('',#295,#296,#135,.T.);
#376=EDGE_CURVE('',#295,#297,#136,.T.);
#377=EDGE_CURVE('',#298,#296,#137,.T.);
#378=EDGE_CURVE('',#297,#298,#138,.T.);
#379=EDGE_CURVE('',#297,#299,#251,.T.);
#380=EDGE_CURVE('',#300,#298,#252,.T.);
#381=EDGE_CURVE('',#299,#300,#139,.T.);
#382=EDGE_CURVE('',#301,#299,#140,.T.);
#383=EDGE_CURVE('',#302,#300,#141,.T.);
#384=EDGE_CURVE('',#301,#302,#142,.T.);
#385=EDGE_CURVE('',#301,#303,#253,.T.);
#386=EDGE_CURVE('',#304,#302,#254,.T.);
#387=EDGE_CURVE('',#303,#304,#143,.T.);
#388=EDGE_CURVE('',#305,#303,#144,.T.);
#389=EDGE_CURVE('',#306,#304,#145,.T.);
#390=EDGE_CURVE('',#305,#306,#146,.T.);
#391=EDGE_CURVE('',#307,#305,#255,.T.);
#392=EDGE_CURVE('',#308,#306,#256,.T.);
#393=EDGE_CURVE('',#307,#308,#147,.T.);
#394=EDGE_CURVE('',#307,#309,#15,.T.);
#395=EDGE_CURVE('',#310,#308,#16,.T.);
#396=EDGE_CURVE('',#309,#310,#148,.T.);
#397=EDGE_CURVE('',#311,#309,#17,.T.);
#398=EDGE_CURVE('',#312,#310,#18,.T.);
#399=EDGE_CURVE('',#311,#312,#149,.T.);
#400=EDGE_CURVE('',#313,#311,#257,.T.);
#401=EDGE_CURVE('',#314,#312,#258,.T.);
#402=EDGE_CURVE('',#313,#314,#150,.T.);
#403=EDGE_CURVE('',#313,#315,#151,.T.);
#404=EDGE_CURVE('',#316,#314,#152,.T.);
#405=EDGE_CURVE('',#315,#316,#153,.T.);
#406=EDGE_CURVE('',#315,#317,#259,.T.);
#407=EDGE_CURVE('',#318,#316,#260,.T.);
#408=EDGE_CURVE('',#317,#318,#154,.T.);
#409=EDGE_CURVE('',#317,#319,#155,.T.);
#410=EDGE_CURVE('',#320,#318,#156,.T.);
#411=EDGE_CURVE('',#319,#320,#157,.T.);
#412=EDGE_CURVE('',#319,#321,#261,.T.);
#413=EDGE_CURVE('',#322,#320,#262,.T.);
#414=EDGE_CURVE('',#321,#322,#158,.T.);
#415=EDGE_CURVE('',#323,#321,#159,.T.);
#416=EDGE_CURVE('',#324,#322,#160,.T.);
#417=EDGE_CURVE('',#323,#324,#161,.T.);
#418=EDGE_CURVE('',#325,#323,#263,.T.);
#419=EDGE_CURVE('',#326,#324,#264,.T.);
#420=EDGE_CURVE('',#325,#326,#162,.T.);
#421=EDGE_CURVE('',#325,#327,#163,.T.);
#422=EDGE_CURVE('',#328,#326,#164,.T.);
#423=EDGE_CURVE('',#327,#328,#165,.T.);
#424=EDGE_CURVE('',#329,#327,#265,.T.);
#425=EDGE_CURVE('',#330,#328,#266,.T.);
#426=EDGE_CURVE('',#329,#330,#166,.T.);
#427=EDGE_CURVE('',#329,#331,#167,.T.);
#428=EDGE_CURVE('',#332,#330,#168,.T.);
#429=EDGE_CURVE('',#331,#332,#169,.T.);
#430=EDGE_CURVE('',#333,#331,#267,.T.);
#431=EDGE_CURVE('',#334,#332,#268,.T.);
#432=EDGE_CURVE('',#333,#334,#170,.T.);
#433=EDGE_CURVE('',#335,#333,#171,.T.);
#434=EDGE_CURVE('',#336,#334,#172,.T.);
#435=EDGE_CURVE('',#335,#336,#173,.T.);
#436=EDGE_CURVE('',#337,#335,#269,.T.);
#437=EDGE_CURVE('',#338,#336,#270,.T.);
#438=EDGE_CURVE('',#337,#338,#174,.T.);
#439=EDGE_CURVE('',#271,#337,#175,.T.);
#440=EDGE_CURVE('',#273,#338,#176,.T.);
#441=ORIENTED_EDGE('',*,*,#339,.F.);
#442=ORIENTED_EDGE('',*,*,#340,.T.);
#443=ORIENTED_EDGE('',*,*,#341,.F.);
#444=ORIENTED_EDGE('',*,*,#342,.F.);
#445=ORIENTED_EDGE('',*,*,#343,.F.);
#446=ORIENTED_EDGE('',*,*,#342,.T.);
#447=ORIENTED_EDGE('',*,*,#344,.F.);
#448=ORIENTED_EDGE('',*,*,#345,.F.);
#449=ORIENTED_EDGE('',*,*,#346,.T.);
#450=ORIENTED_EDGE('',*,*,#345,.T.);
#451=ORIENTED_EDGE('',*,*,#347,.F.);
#452=ORIENTED_EDGE('',*,*,#348,.F.);
#453=ORIENTED_EDGE('',*,*,#349,.F.);
#454=ORIENTED_EDGE('',*,*,#348,.T.);
#455=ORIENTED_EDGE('',*,*,#350,.F.);
#456=ORIENTED_EDGE('',*,*,#351,.F.);
#457=ORIENTED_EDGE('',*,*,#352,.F.);
#458=ORIENTED_EDGE('',*,*,#351,.T.);
#459=ORIENTED_EDGE('',*,*,#353,.F.);
#460=ORIENTED_EDGE('',*,*,#354,.F.);
#461=ORIENTED_EDGE('',*,*,#355,.T.);
#462=ORIENTED_EDGE('',*,*,#354,.T.);
#463=ORIENTED_EDGE('',*,*,#356,.F.);
#464=ORIENTED_EDGE('',*,*,#357,.F.);
#465=ORIENTED_EDGE('',*,*,#358,.T.);
#466=ORIENTED_EDGE('',*,*,#357,.T.);
#467=ORIENTED_EDGE('',*,*,#359,.F.);
#468=ORIENTED_EDGE('',*,*,#360,.F.);
#469=ORIENTED_EDGE('',*,*,#361,.T.);
#470=ORIENTED_EDGE('',*,*,#360,.T.);
#471=ORIENTED_EDGE('',*,*,#362,.F.);
#472=ORIENTED_EDGE('',*,*,#363,.F.);
#473=ORIENTED_EDGE('',*,*,#364,.T.);
#474=ORIENTED_EDGE('',*,*,#363,.T.);
#475=ORIENTED_EDGE('',*,*,#365,.F.);
#476=ORIENTED_EDGE('',*,*,#366,.F.);
#477=ORIENTED_EDGE('',*,*,#367,.T.);
#478=ORIENTED_EDGE('',*,*,#366,.T.);
#479=ORIENTED_EDGE('',*,*,#368,.F.);
#480=ORIENTED_EDGE('',*,*,#369,.F.);
#481=ORIENTED_EDGE('',*,*,#370,.T.);
#482=ORIENTED_EDGE('',*,*,#369,.T.);
#483=ORIENTED_EDGE('',*,*,#371,.F.);
#484=ORIENTED_EDGE('',*,*,#372,.F.);
#485=ORIENTED_EDGE('',*,*,#373,.T.);
#486=ORIENTED_EDGE('',*,*,#372,.T.);
#487=ORIENTED_EDGE('',*,*,#374,.F.);
#488=ORIENTED_EDGE('',*,*,#375,.F.);
#489=ORIENTED_EDGE('',*,*,#376,.F.);
#490=ORIENTED_EDGE('',*,*,#375,.T.);
#491=ORIENTED_EDGE('',*,*,#377,.F.);
#492=ORIENTED_EDGE('',*,*,#378,.F.);
#493=ORIENTED_EDGE('',*,*,#379,.F.);
#494=ORIENTED_EDGE('',*,*,#378,.T.);
#495=ORIENTED_EDGE('',*,*,#380,.F.);
#496=ORIENTED_EDGE('',*,*,#381,.F.);
#497=ORIENTED_EDGE('',*,*,#382,.T.);
#498=ORIENTED_EDGE('',*,*,#381,.T.);
#499=ORIENTED_EDGE('',*,*,#383,.F.);
#500=ORIENTED_EDGE('',*,*,#384,.F.);
#501=ORIENTED_EDGE('',*,*,#385,.F.);
#502=ORIENTED_EDGE('',*,*,#384,.T.);
#503=ORIENTED_EDGE('',*,*,#386,.F.);
#504=ORIENTED_EDGE('',*,*,#387,.F.);
#505=ORIENTED_EDGE('',*,*,#388,.T.);
#506=ORIENTED_EDGE('',*,*,#387,.T.);
#507=ORIENTED_EDGE('',*,*,#389,.F.);
#508=ORIENTED_EDGE('',*,*,#390,.F.);
#509=ORIENTED_EDGE('',*,*,#391,.T.);
#510=ORIENTED_EDGE('',*,*,#390,.T.);
#511=ORIENTED_EDGE('',*,*,#392,.F.);
#512=ORIENTED_EDGE('',*,*,#393,.F.);
#513=ORIENTED_EDGE('',*,*,#394,.F.);
#514=ORIENTED_EDGE('',*,*,#393,.T.);
#515=ORIENTED_EDGE('',*,*,#395,.F.);
#516=ORIENTED_EDGE('',*,*,#396,.F.);
#517=ORIENTED_EDGE('',*,*,#397,.T.);
#518=ORIENTED_EDGE('',*,*,#396,.T.);
#519=ORIENTED_EDGE('',*,*,#398,.F.);
#520=ORIENTED_EDGE('',*,*,#399,.F.);
#521=ORIENTED_EDGE('',*,*,#400,.T.);
#522=ORIENTED_EDGE('',*,*,#399,.T.);
#523=ORIENTED_EDGE('',*,*,#401,.F.);
#524=ORIENTED_EDGE('',*,*,#402,.F.);
#525=ORIENTED_EDGE('',*,*,#403,.F.);
#526=ORIENTED_EDGE('',*,*,#402,.T.);
#527=ORIENTED_EDGE('',*,*,#404,.F.);
#528=ORIENTED_EDGE('',*,*,#405,.F.);
#529=ORIENTED_EDGE('',*,*,#406,.F.);
#530=ORIENTED_EDGE('',*,*,#405,.T.);
#531=ORIENTED_EDGE('',*,*,#407,.F.);
#532=ORIENTED_EDGE('',*,*,#408,.F.);
#533=ORIENTED_EDGE('',*,*,#409,.F.);
#534=ORIENTED_EDGE('',*,*,#408,.T.);
#535=ORIENTED_EDGE('',*,*,#410,.F.);
#536=ORIENTED_EDGE('',*,*,#411,.F.);
#537=ORIENTED_EDGE('',*,*,#412,.F.);
#538=ORIENTED_EDGE('',*,*,#411,.T.);
#539=ORIENTED_EDGE('',*,*,#413,.F.);
#540=ORIENTED_EDGE('',*,*,#414,.F.);
#541=ORIENTED_EDGE('',*,*,#415,.T.);
#542=ORIENTED_EDGE('',*,*,#414,.T.);
#543=ORIENTED_EDGE('',*,*,#416,.F.);
#544=ORIENTED_EDGE('',*,*,#417,.F.);
#545=ORIENTED_EDGE('',*,*,#418,.T.);
#546=ORIENTED_EDGE('',*,*,#417,.T.);
#547=ORIENTED_EDGE('',*,*,#419,.F.);
#548=ORIENTED_EDGE('',*,*,#420,.F.);
#549=ORIENTED_EDGE('',*,*,#421,.F.);
#550=ORIENTED_EDGE('',*,*,#420,.T.);
#551=ORIENTED_EDGE('',*,*,#422,.F.);
#552=ORIENTED_EDGE('',*,*,#423,.F.);
#553=ORIENTED_EDGE('',*,*,#424,.T.);
#554=ORIENTED_EDGE('',*,*,#423,.T.);
#555=ORIENTED_EDGE('',*,*,#425,.F.);
#556=ORIENTED_EDGE('',*,*,#426,.F.);
#557=ORIENTED_EDGE('',*,*,#427,.F.);
#558=ORIENTED_EDGE('',*,*,#426,.T.);
#559=ORIENTED_EDGE('',*,*,#428,.F.);
#560=ORIENTED_EDGE('',*,*,#429,.F.);
#561=ORIENTED_EDGE('',*,*,#430,.T.);
#562=ORIENTED_EDGE('',*,*,#429,.T.);
#563=ORIENTED_EDGE('',*,*,#431,.F.);
#564=ORIENTED_EDGE('',*,*,#432,.F.);
#565=ORIENTED_EDGE('',*,*,#433,.T.);
#566=ORIENTED_EDGE('',*,*,#432,.T.);
#567=ORIENTED_EDGE('',*,*,#434,.F.);
#568=ORIENTED_EDGE('',*,*,#435,.F.);
#569=ORIENTED_EDGE('',*,*,#436,.T.);
#570=ORIENTED_EDGE('',*,*,#435,.T.);
#571=ORIENTED_EDGE('',*,*,#437,.F.);
#572=ORIENTED_EDGE('',*,*,#438,.F.);
#573=ORIENTED_EDGE('',*,*,#439,.T.);
#574=ORIENTED_EDGE('',*,*,#438,.T.);
#575=ORIENTED_EDGE('',*,*,#440,.F.);
#576=ORIENTED_EDGE('',*,*,#340,.F.);
#577=ORIENTED_EDGE('',*,*,#440,.T.);
#578=ORIENTED_EDGE('',*,*,#437,.T.);
#579=ORIENTED_EDGE('',*,*,#434,.T.);
#580=ORIENTED_EDGE('',*,*,#431,.T.);
#581=ORIENTED_EDGE('',*,*,#428,.T.);
#582=ORIENTED_EDGE('',*,*,#425,.T.);
#583=ORIENTED_EDGE('',*,*,#422,.T.);
#584=ORIENTED_EDGE('',*,*,#419,.T.);
#585=ORIENTED_EDGE('',*,*,#416,.T.);
#586=ORIENTED_EDGE('',*,*,#413,.T.);
#587=ORIENTED_EDGE('',*,*,#410,.T.);
#588=ORIENTED_EDGE('',*,*,#407,.T.);
#589=ORIENTED_EDGE('',*,*,#404,.T.);
#590=ORIENTED_EDGE('',*,*,#401,.T.);
#591=ORIENTED_EDGE('',*,*,#398,.T.);
#592=ORIENTED_EDGE('',*,*,#395,.T.);
#593=ORIENTED_EDGE('',*,*,#392,.T.);
#594=ORIENTED_EDGE('',*,*,#389,.T.);
#595=ORIENTED_EDGE('',*,*,#386,.T.);
#596=ORIENTED_EDGE('',*,*,#383,.T.);
#597=ORIENTED_EDGE('',*,*,#380,.T.);
#598=ORIENTED_EDGE('',*,*,#377,.T.);
#599=ORIENTED_EDGE('',*,*,#374,.T.);
#600=ORIENTED_EDGE('',*,*,#371,.T.);
#601=ORIENTED_EDGE('',*,*,#368,.T.);
#602=ORIENTED_EDGE('',*,*,#365,.T.);
#603=ORIENTED_EDGE('',*,*,#362,.T.);
#604=ORIENTED_EDGE('',*,*,#359,.T.);
#605=ORIENTED_EDGE('',*,*,#356,.T.);
#606=ORIENTED_EDGE('',*,*,#353,.T.);
#607=ORIENTED_EDGE('',*,*,#350,.T.);
#608=ORIENTED_EDGE('',*,*,#347,.T.);
#609=ORIENTED_EDGE('',*,*,#344,.T.);
#610=ORIENTED_EDGE('',*,*,#341,.T.);
#611=ORIENTED_EDGE('',*,*,#439,.F.);
#612=ORIENTED_EDGE('',*,*,#339,.T.);
#613=ORIENTED_EDGE('',*,*,#343,.T.);
#614=ORIENTED_EDGE('',*,*,#346,.F.);
#615=ORIENTED_EDGE('',*,*,#349,.T.);
#616=ORIENTED_EDGE('',*,*,#352,.T.);
#617=ORIENTED_EDGE('',*,*,#355,.F.);
#618=ORIENTED_EDGE('',*,*,#358,.F.);
#619=ORIENTED_EDGE('',*,*,#361,.F.);
#620=ORIENTED_EDGE('',*,*,#364,.F.);
#621=ORIENTED_EDGE('',*,*,#367,.F.);
#622=ORIENTED_EDGE('',*,*,#370,.F.);
#623=ORIENTED_EDGE('',*,*,#373,.F.);
#624=ORIENTED_EDGE('',*,*,#376,.T.);
#625=ORIENTED_EDGE('',*,*,#379,.T.);
#626=ORIENTED_EDGE('',*,*,#382,.F.);
#627=ORIENTED_EDGE('',*,*,#385,.T.);
#628=ORIENTED_EDGE('',*,*,#388,.F.);
#629=ORIENTED_EDGE('',*,*,#391,.F.);
#630=ORIENTED_EDGE('',*,*,#394,.T.);
#631=ORIENTED_EDGE('',*,*,#397,.F.);
#632=ORIENTED_EDGE('',*,*,#400,.F.);
#633=ORIENTED_EDGE('',*,*,#403,.T.);
#634=ORIENTED_EDGE('',*,*,#406,.T.);
#635=ORIENTED_EDGE('',*,*,#409,.T.);
#636=ORIENTED_EDGE('',*,*,#412,.T.);
#637=ORIENTED_EDGE('',*,*,#415,.F.);
#638=ORIENTED_EDGE('',*,*,#418,.F.);
#639=ORIENTED_EDGE('',*,*,#421,.T.);
#640=ORIENTED_EDGE('',*,*,#424,.F.);
#641=ORIENTED_EDGE('',*,*,#427,.T.);
#642=ORIENTED_EDGE('',*,*,#430,.F.);
#643=ORIENTED_EDGE('',*,*,#433,.F.);
#644=ORIENTED_EDGE('',*,*,#436,.F.);
#645=CYLINDRICAL_SURFACE('',#711,1.10000000000085);
#646=CYLINDRICAL_SURFACE('',#714,1.10000000000037);
#647=CYLINDRICAL_SURFACE('',#718,2.15000000000001);
#648=CYLINDRICAL_SURFACE('',#722,0.600000000000001);
#649=CYLINDRICAL_SURFACE('',#726,0.600000000000001);
#650=CYLINDRICAL_SURFACE('',#730,0.6);
#651=CYLINDRICAL_SURFACE('',#734,0.3);
#652=CYLINDRICAL_SURFACE('',#738,1.25000000000001);
#653=CYLINDRICAL_SURFACE('',#742,2.00000000000043);
#654=CYLINDRICAL_SURFACE('',#745,2.00000000000044);
#655=CYLINDRICAL_SURFACE('',#749,1.25000000000001);
#656=CYLINDRICAL_SURFACE('',#753,0.3);
#657=CYLINDRICAL_SURFACE('',#757,0.6);
#658=CYLINDRICAL_SURFACE('',#761,0.600000000000001);
#659=CYLINDRICAL_SURFACE('',#765,0.600000000000001);
#660=CYLINDRICAL_SURFACE('',#769,2.15000000000001);
#661=ADVANCED_FACE('',(#43),#645,.F.);
#662=ADVANCED_FACE('',(#44),#41,.T.);
#663=ADVANCED_FACE('',(#45),#42,.T.);
#664=ADVANCED_FACE('',(#46),#646,.F.);
#665=ADVANCED_FACE('',(#47),#21,.T.);
#666=ADVANCED_FACE('',(#48),#647,.T.);
#667=ADVANCED_FACE('',(#49),#22,.T.);
#668=ADVANCED_FACE('',(#50),#648,.T.);
#669=ADVANCED_FACE('',(#51),#23,.T.);
#670=ADVANCED_FACE('',(#52),#649,.T.);
#671=ADVANCED_FACE('',(#53),#24,.T.);
#672=ADVANCED_FACE('',(#54),#650,.T.);
#673=ADVANCED_FACE('',(#55),#25,.T.);
#674=ADVANCED_FACE('',(#56),#651,.F.);
#675=ADVANCED_FACE('',(#57),#26,.T.);
#676=ADVANCED_FACE('',(#58),#652,.F.);
#677=ADVANCED_FACE('',(#59),#27,.T.);
#678=ADVANCED_FACE('',(#60),#653,.T.);
#679=ADVANCED_FACE('',(#61),#19,.T.);
#680=ADVANCED_FACE('',(#62),#20,.T.);
#681=ADVANCED_FACE('',(#63),#654,.T.);
#682=ADVANCED_FACE('',(#64),#28,.T.);
#683=ADVANCED_FACE('',(#65),#655,.F.);
#684=ADVANCED_FACE('',(#66),#29,.T.);
#685=ADVANCED_FACE('',(#67),#656,.F.);
#686=ADVANCED_FACE('',(#68),#30,.T.);
#687=ADVANCED_FACE('',(#69),#657,.T.);
#688=ADVANCED_FACE('',(#70),#31,.T.);
#689=ADVANCED_FACE('',(#71),#658,.T.);
#690=ADVANCED_FACE('',(#72),#32,.T.);
#691=ADVANCED_FACE('',(#73),#659,.T.);
#692=ADVANCED_FACE('',(#74),#33,.T.);
#693=ADVANCED_FACE('',(#75),#660,.T.);
#694=ADVANCED_FACE('',(#76),#34,.T.);
#695=ADVANCED_FACE('',(#77),#35,.T.);
#696=ADVANCED_FACE('',(#78),#36,.F.);
#697=CLOSED_SHELL('',(#661,#662,#663,#664,#665,#666,#667,#668,#669,#670,
#671,#672,#673,#674,#675,#676,#677,#678,#679,#680,#681,#682,#683,#684,#685,
#686,#687,#688,#689,#690,#691,#692,#693,#694,#695,#696));
#698=DERIVED_UNIT_ELEMENT(#700,1.);
#699=DERIVED_UNIT_ELEMENT(#1303,-3.);
#700=(
MASS_UNIT()
NAMED_UNIT(*)
SI_UNIT(.KILO.,.GRAM.)
);
#701=DERIVED_UNIT((#698,#699));
#702=MEASURE_REPRESENTATION_ITEM('density measure',
POSITIVE_RATIO_MEASURE(7850.),#701);
#703=PROPERTY_DEFINITION_REPRESENTATION(#708,#705);
#704=PROPERTY_DEFINITION_REPRESENTATION(#709,#706);
#705=REPRESENTATION('material name',(#707),#1300);
#706=REPRESENTATION('density',(#702),#1300);
#707=DESCRIPTIVE_REPRESENTATION_ITEM('Steel','Steel');
#708=PROPERTY_DEFINITION('material property','material name',#1310);
#709=PROPERTY_DEFINITION('material property','density of part',#1310);
#710=AXIS2_PLACEMENT_3D('',#967,#775,#776);
#711=AXIS2_PLACEMENT_3D('',#968,#777,#778);
#712=AXIS2_PLACEMENT_3D('',#971,#779,#780);
#713=AXIS2_PLACEMENT_3D('',#975,#782,#783);
#714=AXIS2_PLACEMENT_3D('',#1039,#787,#788);
#715=AXIS2_PLACEMENT_3D('',#1041,#789,#790);
#716=AXIS2_PLACEMENT_3D('',#1043,#791,#792);
#717=AXIS2_PLACEMENT_3D('',#1045,#794,#795);
#718=AXIS2_PLACEMENT_3D('',#1051,#799,#800);
#719=AXIS2_PLACEMENT_3D('',#1053,#801,#802);
#720=AXIS2_PLACEMENT_3D('',#1055,#803,#804);
#721=AXIS2_PLACEMENT_3D('',#1057,#806,#807);
#722=AXIS2_PLACEMENT_3D('',#1063,#811,#812);
#723=AXIS2_PLACEMENT_3D('',#1065,#813,#814);
#724=AXIS2_PLACEMENT_3D('',#1067,#815,#816);
#725=AXIS2_PLACEMENT_3D('',#1069,#818,#819);
#726=AXIS2_PLACEMENT_3D('',#1075,#823,#824);
#727=AXIS2_PLACEMENT_3D('',#1077,#825,#826);
#728=AXIS2_PLACEMENT_3D('',#1079,#827,#828);
#729=AXIS2_PLACEMENT_3D('',#1081,#830,#831);
#730=AXIS2_PLACEMENT_3D('',#1087,#835,#836);
#731=AXIS2_PLACEMENT_3D('',#1089,#837,#838);
#732=AXIS2_PLACEMENT_3D('',#1091,#839,#840);
#733=AXIS2_PLACEMENT_3D('',#1093,#842,#843);
#734=AXIS2_PLACEMENT_3D('',#1099,#847,#848);
#735=AXIS2_PLACEMENT_3D('',#1101,#849,#850);
#736=AXIS2_PLACEMENT_3D('',#1103,#851,#852);
#737=AXIS2_PLACEMENT_3D('',#1105,#854,#855);
#738=AXIS2_PLACEMENT_3D('',#1111,#859,#860);
#739=AXIS2_PLACEMENT_3D('',#1113,#861,#862);
#740=AXIS2_PLACEMENT_3D('',#1115,#863,#864);
#741=AXIS2_PLACEMENT_3D('',#1117,#866,#867);
#742=AXIS2_PLACEMENT_3D('',#1123,#871,#872);
#743=AXIS2_PLACEMENT_3D('',#1125,#873,#874);
#744=AXIS2_PLACEMENT_3D('',#1127,#875,#876);
#745=AXIS2_PLACEMENT_3D('',#1215,#880,#881);
#746=AXIS2_PLACEMENT_3D('',#1217,#882,#883);
#747=AXIS2_PLACEMENT_3D('',#1219,#884,#885);
#748=AXIS2_PLACEMENT_3D('',#1221,#887,#888);
#749=AXIS2_PLACEMENT_3D('',#1227,#892,#893);
#750=AXIS2_PLACEMENT_3D('',#1229,#894,#895);
#751=AXIS2_PLACEMENT_3D('',#1231,#896,#897);
#752=AXIS2_PLACEMENT_3D('',#1233,#899,#900);
#753=AXIS2_PLACEMENT_3D('',#1239,#904,#905);
#754=AXIS2_PLACEMENT_3D('',#1241,#906,#907);
#755=AXIS2_PLACEMENT_3D('',#1243,#908,#909);
#756=AXIS2_PLACEMENT_3D('',#1245,#911,#912);
#757=AXIS2_PLACEMENT_3D('',#1251,#916,#917);
#758=AXIS2_PLACEMENT_3D('',#1253,#918,#919);
#759=AXIS2_PLACEMENT_3D('',#1255,#920,#921);
#760=AXIS2_PLACEMENT_3D('',#1257,#923,#924);
#761=AXIS2_PLACEMENT_3D('',#1263,#928,#929);
#762=AXIS2_PLACEMENT_3D('',#1265,#930,#931);
#763=AXIS2_PLACEMENT_3D('',#1267,#932,#933);
#764=AXIS2_PLACEMENT_3D('',#1269,#935,#936);
#765=AXIS2_PLACEMENT_3D('',#1275,#940,#941);
#766=AXIS2_PLACEMENT_3D('',#1277,#942,#943);
#767=AXIS2_PLACEMENT_3D('',#1279,#944,#945);
#768=AXIS2_PLACEMENT_3D('',#1281,#947,#948);
#769=AXIS2_PLACEMENT_3D('',#1287,#952,#953);
#770=AXIS2_PLACEMENT_3D('',#1289,#954,#955);
#771=AXIS2_PLACEMENT_3D('',#1291,#956,#957);
#772=AXIS2_PLACEMENT_3D('',#1293,#959,#960);
#773=AXIS2_PLACEMENT_3D('',#1296,#963,#964);
#774=AXIS2_PLACEMENT_3D('',#1297,#965,#966);
#775=DIRECTION('axis',(0.,0.,1.));
#776=DIRECTION('refdir',(1.,0.,0.));
#777=DIRECTION('center_axis',(0.,0.,1.));
#778=DIRECTION('ref_axis',(-8.66768432784784E-7,-0.999999999999624,0.));
#779=DIRECTION('center_axis',(0.,0.,1.));
#780=DIRECTION('ref_axis',(-8.66768432784784E-7,-0.999999999999624,0.));
#781=DIRECTION('',(0.,0.,1.));
#782=DIRECTION('center_axis',(0.,0.,-1.));
#783=DIRECTION('ref_axis',(-8.66768432784784E-7,-0.999999999999624,0.));
#784=DIRECTION('',(0.,0.,1.));
#785=DIRECTION('',(0.,0.,1.));
#786=DIRECTION('',(0.,0.,1.));
#787=DIRECTION('center_axis',(0.,0.,1.));
#788=DIRECTION('ref_axis',(-0.999999999999849,-5.48634131559416E-7,0.));
#789=DIRECTION('center_axis',(0.,0.,1.));
#790=DIRECTION('ref_axis',(-0.999999999999849,-5.48634131559416E-7,0.));
#791=DIRECTION('center_axis',(0.,0.,-1.));
#792=DIRECTION('ref_axis',(-0.999999999999849,-5.48634131559416E-7,0.));
#793=DIRECTION('',(0.,0.,1.));
#794=DIRECTION('center_axis',(0.,1.,0.));
#795=DIRECTION('ref_axis',(-1.,0.,0.));
#796=DIRECTION('',(1.,0.,0.));
#797=DIRECTION('',(-1.,0.,0.));
#798=DIRECTION('',(0.,0.,1.));
#799=DIRECTION('center_axis',(0.,0.,1.));
#800=DIRECTION('ref_axis',(1.,2.58191401075617E-16,0.));
#801=DIRECTION('center_axis',(0.,0.,1.));
#802=DIRECTION('ref_axis',(1.,2.58191401075617E-16,0.));
#803=DIRECTION('center_axis',(0.,0.,1.));
#804=DIRECTION('ref_axis',(1.,2.58191401075617E-16,0.));
#805=DIRECTION('',(0.,0.,1.));
#806=DIRECTION('center_axis',(1.,3.08395284618099E-15,0.));
#807=DIRECTION('ref_axis',(-3.08395284618099E-15,1.,0.));
#808=DIRECTION('',(-3.08395284618099E-15,1.,0.));
#809=DIRECTION('',(-3.08395284618099E-15,1.,0.));
#810=DIRECTION('',(0.,0.,1.));
#811=DIRECTION('center_axis',(0.,0.,1.));
#812=DIRECTION('ref_axis',(9.25185853854296E-16,-1.,0.));
#813=DIRECTION('center_axis',(0.,0.,1.));
#814=DIRECTION('ref_axis',(9.25185853854296E-16,-1.,0.));
#815=DIRECTION('center_axis',(0.,0.,1.));
#816=DIRECTION('ref_axis',(9.25185853854296E-16,-1.,0.));
#817=DIRECTION('',(0.,0.,1.));
#818=DIRECTION('center_axis',(1.58603289232164E-15,-1.,0.));
#819=DIRECTION('ref_axis',(1.,1.58603289232164E-15,0.));
#820=DIRECTION('',(1.,1.58603289232164E-15,0.));
#821=DIRECTION('',(1.,1.58603289232164E-15,0.));
#822=DIRECTION('',(0.,0.,1.));
#823=DIRECTION('center_axis',(0.,0.,1.));
#824=DIRECTION('ref_axis',(-1.,0.,0.));
#825=DIRECTION('center_axis',(0.,0.,1.));
#826=DIRECTION('ref_axis',(-1.,0.,0.));
#827=DIRECTION('center_axis',(0.,0.,1.));
#828=DIRECTION('ref_axis',(-1.,0.,0.));
#829=DIRECTION('',(0.,0.,1.));
#830=DIRECTION('center_axis',(-1.,1.85037170770858E-15,0.));
#831=DIRECTION('ref_axis',(-1.85037170770858E-15,-1.,0.));
#832=DIRECTION('',(-1.85037170770858E-15,-1.,0.));
#833=DIRECTION('',(-1.85037170770858E-15,-1.,0.));
#834=DIRECTION('',(0.,0.,1.));
#835=DIRECTION('center_axis',(0.,0.,1.));
#836=DIRECTION('ref_axis',(0.,1.,0.));
#837=DIRECTION('center_axis',(0.,0.,1.));
#838=DIRECTION('ref_axis',(0.,1.,0.));
#839=DIRECTION('center_axis',(0.,0.,1.));
#840=DIRECTION('ref_axis',(0.,1.,0.));
#841=DIRECTION('',(0.,0.,1.));
#842=DIRECTION('center_axis',(0.,1.,0.));
#843=DIRECTION('ref_axis',(-1.,0.,0.));
#844=DIRECTION('',(1.,0.,0.));
#845=DIRECTION('',(-1.,0.,0.));
#846=DIRECTION('',(0.,0.,1.));
#847=DIRECTION('center_axis',(0.,0.,1.));
#848=DIRECTION('ref_axis',(0.,-1.,0.));
#849=DIRECTION('center_axis',(0.,0.,1.));
#850=DIRECTION('ref_axis',(0.,-1.,0.));
#851=DIRECTION('center_axis',(0.,0.,-1.));
#852=DIRECTION('ref_axis',(0.,-1.,0.));
#853=DIRECTION('',(0.,0.,1.));
#854=DIRECTION('center_axis',(-1.,8.76491861546189E-15,0.));
#855=DIRECTION('ref_axis',(-8.76491861546189E-15,-1.,0.));
#856=DIRECTION('',(-8.76491861546189E-15,-1.,0.));
#857=DIRECTION('',(-8.76491861546189E-15,-1.,0.));
#858=DIRECTION('',(0.,0.,1.));
#859=DIRECTION('center_axis',(0.,0.,1.));
#860=DIRECTION('ref_axis',(1.,4.44089209850058E-16,0.));
#861=DIRECTION('center_axis',(0.,0.,1.));
#862=DIRECTION('ref_axis',(1.,4.44089209850058E-16,0.));
#863=DIRECTION('center_axis',(0.,0.,-1.));
#864=DIRECTION('ref_axis',(1.,4.44089209850058E-16,0.));
#865=DIRECTION('',(0.,0.,1.));
#866=DIRECTION('center_axis',(0.,-1.,0.));
#867=DIRECTION('ref_axis',(1.,0.,0.));
#868=DIRECTION('',(1.,0.,0.));
#869=DIRECTION('',(1.,0.,0.));
#870=DIRECTION('',(0.,0.,1.));
#871=DIRECTION('center_axis',(0.,0.,1.));
#872=DIRECTION('ref_axis',(-1.,-2.17603712826483E-13,0.));
#873=DIRECTION('center_axis',(0.,0.,1.));
#874=DIRECTION('ref_axis',(-1.,-2.17603712826483E-13,0.));
#875=DIRECTION('center_axis',(0.,0.,1.));
#876=DIRECTION('ref_axis',(-1.,-2.17603712826483E-13,0.));
#877=DIRECTION('',(0.,0.,1.));
#878=DIRECTION('',(0.,0.,1.));
#879=DIRECTION('',(0.,0.,1.));
#880=DIRECTION('center_axis',(0.,0.,1.));
#881=DIRECTION('ref_axis',(2.17603712826483E-13,-1.,0.));
#882=DIRECTION('center_axis',(0.,0.,1.));
#883=DIRECTION('ref_axis',(2.17603712826483E-13,-1.,0.));
#884=DIRECTION('center_axis',(0.,0.,1.));
#885=DIRECTION('ref_axis',(2.17603712826483E-13,-1.,0.));
#886=DIRECTION('',(0.,0.,1.));
#887=DIRECTION('center_axis',(0.,-1.,0.));
#888=DIRECTION('ref_axis',(1.,0.,0.));
#889=DIRECTION('',(-1.,0.,0.));
#890=DIRECTION('',(1.,0.,0.));
#891=DIRECTION('',(0.,0.,1.));
#892=DIRECTION('center_axis',(0.,0.,1.));
#893=DIRECTION('ref_axis',(-1.11022302462515E-14,1.,0.));
#894=DIRECTION('center_axis',(0.,0.,1.));
#895=DIRECTION('ref_axis',(-1.11022302462515E-14,1.,0.));
#896=DIRECTION('center_axis',(0.,0.,-1.));
#897=DIRECTION('ref_axis',(-1.11022302462515E-14,1.,0.));
#898=DIRECTION('',(0.,0.,1.));
#899=DIRECTION('center_axis',(1.,8.76491861546188E-15,0.));
#900=DIRECTION('ref_axis',(-8.76491861546188E-15,1.,0.));
#901=DIRECTION('',(8.76491861546188E-15,-1.,0.));
#902=DIRECTION('',(-8.76491861546188E-15,1.,0.));
#903=DIRECTION('',(0.,0.,1.));
#904=DIRECTION('center_axis',(0.,0.,1.));
#905=DIRECTION('ref_axis',(-1.,0.,0.));
#906=DIRECTION('center_axis',(0.,0.,1.));
#907=DIRECTION('ref_axis',(-1.,0.,0.));
#908=DIRECTION('center_axis',(0.,0.,-1.));
#909=DIRECTION('ref_axis',(-1.,0.,0.));
#910=DIRECTION('',(0.,0.,1.));
#911=DIRECTION('center_axis',(0.,1.,0.));
#912=DIRECTION('ref_axis',(-1.,0.,0.));
#913=DIRECTION('',(-1.,0.,0.));
#914=DIRECTION('',(-1.,0.,0.));
#915=DIRECTION('',(0.,0.,1.));
#916=DIRECTION('center_axis',(0.,0.,1.));
#917=DIRECTION('ref_axis',(1.,0.,0.));
#918=DIRECTION('center_axis',(0.,0.,1.));
#919=DIRECTION('ref_axis',(1.,0.,0.));
#920=DIRECTION('center_axis',(0.,0.,1.));
#921=DIRECTION('ref_axis',(1.,0.,0.));
#922=DIRECTION('',(0.,0.,1.));
#923=DIRECTION('center_axis',(1.,1.85037170770858E-15,0.));
#924=DIRECTION('ref_axis',(-1.85037170770858E-15,1.,0.));
#925=DIRECTION('',(1.85037170770858E-15,-1.,0.));
#926=DIRECTION('',(-1.85037170770858E-15,1.,0.));
#927=DIRECTION('',(0.,0.,1.));
#928=DIRECTION('center_axis',(0.,0.,1.));
#929=DIRECTION('ref_axis',(1.85037170770859E-15,-1.,0.));
#930=DIRECTION('center_axis',(0.,0.,1.));
#931=DIRECTION('ref_axis',(1.85037170770859E-15,-1.,0.));
#932=DIRECTION('center_axis',(0.,0.,1.));
#933=DIRECTION('ref_axis',(1.85037170770859E-15,-1.,0.));
#934=DIRECTION('',(0.,0.,1.));
#935=DIRECTION('center_axis',(-3.17206578464329E-15,-1.,0.));
#936=DIRECTION('ref_axis',(1.,-3.17206578464329E-15,0.));
#937=DIRECTION('',(-1.,3.17206578464329E-15,0.));
#938=DIRECTION('',(1.,-3.17206578464329E-15,0.));
#939=DIRECTION('',(0.,0.,1.));
#940=DIRECTION('center_axis',(0.,0.,1.));
#941=DIRECTION('ref_axis',(-1.,1.85037170770859E-15,0.));
#942=DIRECTION('center_axis',(0.,0.,1.));
#943=DIRECTION('ref_axis',(-1.,1.85037170770859E-15,0.));
#944=DIRECTION('center_axis',(0.,0.,1.));
#945=DIRECTION('ref_axis',(-1.,1.85037170770859E-15,0.));
#946=DIRECTION('',(0.,0.,1.));
#947=DIRECTION('center_axis',(-1.,-4.44089209850067E-16,0.));
#948=DIRECTION('ref_axis',(4.44089209850067E-16,-1.,0.));
#949=DIRECTION('',(4.44089209850067E-16,-1.,0.));
#950=DIRECTION('',(4.44089209850067E-16,-1.,0.));
#951=DIRECTION('',(0.,0.,1.));
#952=DIRECTION('center_axis',(0.,0.,1.));
#953=DIRECTION('ref_axis',(2.58191401075617E-15,1.,0.));
#954=DIRECTION('center_axis',(0.,0.,1.));
#955=DIRECTION('ref_axis',(2.58191401075617E-15,1.,0.));
#956=DIRECTION('center_axis',(0.,0.,1.));
#957=DIRECTION('ref_axis',(2.58191401075617E-15,1.,0.));
#958=DIRECTION('',(0.,0.,1.));
#959=DIRECTION('center_axis',(2.22044887201899E-15,1.,0.));
#960=DIRECTION('ref_axis',(-1.,2.22044887201899E-15,0.));
#961=DIRECTION('',(-1.,2.22044887201899E-15,0.));
#962=DIRECTION('',(-1.,2.22044887201899E-15,0.));
#963=DIRECTION('center_axis',(0.,0.,1.));
#964=DIRECTION('ref_axis',(1.,0.,0.));
#965=DIRECTION('center_axis',(0.,0.,1.));
#966=DIRECTION('ref_axis',(1.,0.,0.));
#967=CARTESIAN_POINT('',(0.,0.,0.));
#968=CARTESIAN_POINT('Origin',(5.5,2.00000000000044,0.));
#969=CARTESIAN_POINT('',(5.49999904655472,0.899999999999996,0.));
#970=CARTESIAN_POINT('',(6.6000000000002,1.99999939650289,0.));
#971=CARTESIAN_POINT('Origin',(5.5,2.00000000000044,0.));
#972=CARTESIAN_POINT('',(5.49999904655472,0.899999999999996,20.));
#973=CARTESIAN_POINT('',(5.49999904655472,0.899999999999996,0.));
#974=CARTESIAN_POINT('',(6.6000000000002,1.99999939650289,20.));
#975=CARTESIAN_POINT('Origin',(5.5,2.00000000000044,20.));
#976=CARTESIAN_POINT('',(6.6000000000002,1.99999939650289,0.));
#977=CARTESIAN_POINT('Ctrl Pts',(-5.88071269445528E-17,4.6,0.));
#978=CARTESIAN_POINT('Ctrl Pts',(-5.88071269445528E-17,4.6,20.));
#979=CARTESIAN_POINT('Ctrl Pts',(3.73668334826253,4.6,0.));
#980=CARTESIAN_POINT('Ctrl Pts',(3.73668334826253,4.6,20.));
#981=CARTESIAN_POINT('Ctrl Pts',(5.34755740482298,3.80944501782177,0.));
#982=CARTESIAN_POINT('Ctrl Pts',(5.34755740482298,3.80944501782177,20.));
#983=CARTESIAN_POINT('Ctrl Pts',(6.09077085350164,3.05781173122957,0.));
#984=CARTESIAN_POINT('Ctrl Pts',(6.09077085350164,3.05781173122957,20.));
#985=CARTESIAN_POINT('Ctrl Pts',(6.46986130255964,2.67442658037182,0.));
#986=CARTESIAN_POINT('Ctrl Pts',(6.46986130255964,2.67442658037182,20.));
#987=CARTESIAN_POINT('Ctrl Pts',(6.59999976806633,2.34588421221604,0.));
#988=CARTESIAN_POINT('Ctrl Pts',(6.59999976806633,2.34588421221604,20.));
#989=CARTESIAN_POINT('Ctrl Pts',(6.6000000000002,1.99999939650289,0.));
#990=CARTESIAN_POINT('Ctrl Pts',(6.6000000000002,1.99999939650289,20.));
#991=CARTESIAN_POINT('',(-5.88071269445528E-17,4.6,0.));
#992=CARTESIAN_POINT('Ctrl Pts',(6.6000000000002,1.99999939650289,0.));
#993=CARTESIAN_POINT('Ctrl Pts',(6.59999976806633,2.34588421221604,0.));
#994=CARTESIAN_POINT('Ctrl Pts',(6.46986130255964,2.67442658037182,0.));
#995=CARTESIAN_POINT('Ctrl Pts',(6.09077085350164,3.05781173122957,0.));
#996=CARTESIAN_POINT('Ctrl Pts',(5.34755740482297,3.80944501782177,0.));
#997=CARTESIAN_POINT('Ctrl Pts',(3.73668334826253,4.6,0.));
#998=CARTESIAN_POINT('Ctrl Pts',(-5.88071269445528E-17,4.6,0.));
#999=CARTESIAN_POINT('',(0.,4.6,20.));
#1000=CARTESIAN_POINT('Ctrl Pts',(-5.88071269445528E-17,4.6,20.));
#1001=CARTESIAN_POINT('Ctrl Pts',(3.73668334826253,4.6,20.));
#1002=CARTESIAN_POINT('Ctrl Pts',(5.34755740482297,3.80944501782177,20.));
#1003=CARTESIAN_POINT('Ctrl Pts',(6.09077085350164,3.05781173122957,20.));
#1004=CARTESIAN_POINT('Ctrl Pts',(6.46986130255964,2.67442658037182,20.));
#1005=CARTESIAN_POINT('Ctrl Pts',(6.59999976806633,2.34588421221604,20.));
#1006=CARTESIAN_POINT('Ctrl Pts',(6.6000000000002,1.99999939650289,20.));
#1007=CARTESIAN_POINT('',(-5.88071269445528E-17,4.6,0.));
#1008=CARTESIAN_POINT('Ctrl Pts',(-6.6000000000002,1.99999939650289,0.));
#1009=CARTESIAN_POINT('Ctrl Pts',(-6.6000000000002,1.99999939650289,20.));
#1010=CARTESIAN_POINT('Ctrl Pts',(-6.59999976806633,2.34588421221604,0.));
#1011=CARTESIAN_POINT('Ctrl Pts',(-6.59999976806633,2.34588421221604,20.));
#1012=CARTESIAN_POINT('Ctrl Pts',(-6.46986130255964,2.67442658037182,0.));
#1013=CARTESIAN_POINT('Ctrl Pts',(-6.46986130255964,2.67442658037182,20.));
#1014=CARTESIAN_POINT('Ctrl Pts',(-6.09077085350164,3.05781173122957,0.));
#1015=CARTESIAN_POINT('Ctrl Pts',(-6.09077085350164,3.05781173122957,20.));
#1016=CARTESIAN_POINT('Ctrl Pts',(-5.34755740482298,3.80944501782177,0.));
#1017=CARTESIAN_POINT('Ctrl Pts',(-5.34755740482298,3.80944501782177,20.));
#1018=CARTESIAN_POINT('Ctrl Pts',(-3.73668334826253,4.6,0.));
#1019=CARTESIAN_POINT('Ctrl Pts',(-3.73668334826253,4.6,20.));
#1020=CARTESIAN_POINT('Ctrl Pts',(5.88071269445528E-17,4.6,0.));
#1021=CARTESIAN_POINT('Ctrl Pts',(5.88071269445528E-17,4.6,20.));
#1022=CARTESIAN_POINT('',(-6.6000000000002,1.99999939650289,0.));
#1023=CARTESIAN_POINT('Ctrl Pts',(-6.6000000000002,1.99999939650289,0.));
#1024=CARTESIAN_POINT('Ctrl Pts',(-6.59999976806633,2.34588421221604,0.));
#1025=CARTESIAN_POINT('Ctrl Pts',(-6.46986130255964,2.67442658037182,0.));
#1026=CARTESIAN_POINT('Ctrl Pts',(-6.09077085350164,3.05781173122957,0.));
#1027=CARTESIAN_POINT('Ctrl Pts',(-5.34755740482298,3.80944501782177,0.));
#1028=CARTESIAN_POINT('Ctrl Pts',(-3.73668334826253,4.6,0.));
#1029=CARTESIAN_POINT('Ctrl Pts',(5.88071269445528E-17,4.6,0.));
#1030=CARTESIAN_POINT('',(-6.6000000000002,1.99999939650289,20.));
#1031=CARTESIAN_POINT('Ctrl Pts',(-6.6000000000002,1.99999939650289,20.));
#1032=CARTESIAN_POINT('Ctrl Pts',(-6.59999976806633,2.34588421221604,20.));
#1033=CARTESIAN_POINT('Ctrl Pts',(-6.46986130255964,2.67442658037182,20.));
#1034=CARTESIAN_POINT('Ctrl Pts',(-6.09077085350164,3.05781173122957,20.));
#1035=CARTESIAN_POINT('Ctrl Pts',(-5.34755740482298,3.80944501782177,20.));
#1036=CARTESIAN_POINT('Ctrl Pts',(-3.73668334826253,4.6,20.));
#1037=CARTESIAN_POINT('Ctrl Pts',(5.88071269445528E-17,4.6,20.));
#1038=CARTESIAN_POINT('',(-6.6000000000002,1.99999939650289,0.));
#1039=CARTESIAN_POINT('Origin',(-5.5,2.00000000000044,0.));
#1040=CARTESIAN_POINT('',(-5.49999904655472,0.899999999999996,0.));
#1041=CARTESIAN_POINT('Origin',(-5.5,2.00000000000044,0.));
#1042=CARTESIAN_POINT('',(-5.49999904655472,0.899999999999996,20.));
#1043=CARTESIAN_POINT('Origin',(-5.5,2.00000000000044,20.));
#1044=CARTESIAN_POINT('',(-5.49999904655472,0.899999999999996,0.));
#1045=CARTESIAN_POINT('Origin',(-4.75000000000001,0.899999999999996,0.));
#1046=CARTESIAN_POINT('',(-4.75000000000001,0.899999999999996,0.));
#1047=CARTESIAN_POINT('',(-5.49999904655472,0.899999999999996,0.));
#1048=CARTESIAN_POINT('',(-4.75000000000001,0.899999999999996,20.));
#1049=CARTESIAN_POINT('',(-5.49999904655472,0.899999999999996,20.));
#1050=CARTESIAN_POINT('',(-4.75000000000001,0.899999999999996,0.));
#1051=CARTESIAN_POINT('Origin',(-4.75000000000001,-1.25000000000001,0.));
#1052=CARTESIAN_POINT('',(-2.6,-1.25000000000001,0.));
#1053=CARTESIAN_POINT('Origin',(-4.75000000000001,-1.25000000000001,0.));
#1054=CARTESIAN_POINT('',(-2.6,-1.25000000000001,20.));
#1055=CARTESIAN_POINT('Origin',(-4.75000000000001,-1.25000000000001,20.));
#1056=CARTESIAN_POINT('',(-2.6,-1.25000000000001,0.));
#1057=CARTESIAN_POINT('Origin',(-2.6,-3.4,0.));
#1058=CARTESIAN_POINT('',(-2.6,-3.4,0.));
#1059=CARTESIAN_POINT('',(-2.6,-3.4,0.));
#1060=CARTESIAN_POINT('',(-2.6,-3.4,20.));
#1061=CARTESIAN_POINT('',(-2.6,-3.4,20.));
#1062=CARTESIAN_POINT('',(-2.6,-3.4,0.));
#1063=CARTESIAN_POINT('Origin',(-3.2,-3.4,0.));
#1064=CARTESIAN_POINT('',(-3.2,-4.,0.));
#1065=CARTESIAN_POINT('Origin',(-3.2,-3.4,0.));
#1066=CARTESIAN_POINT('',(-3.2,-4.,20.));
#1067=CARTESIAN_POINT('Origin',(-3.2,-3.4,20.));
#1068=CARTESIAN_POINT('',(-3.2,-4.,0.));
#1069=CARTESIAN_POINT('Origin',(-3.9,-4.,0.));
#1070=CARTESIAN_POINT('',(-3.9,-4.,0.));
#1071=CARTESIAN_POINT('',(-3.9,-4.,0.));
#1072=CARTESIAN_POINT('',(-3.9,-4.,20.));
#1073=CARTESIAN_POINT('',(-3.9,-4.,20.));
#1074=CARTESIAN_POINT('',(-3.9,-4.,0.));
#1075=CARTESIAN_POINT('Origin',(-3.9,-3.4,0.));
#1076=CARTESIAN_POINT('',(-4.5,-3.4,0.));
#1077=CARTESIAN_POINT('Origin',(-3.9,-3.4,0.));
#1078=CARTESIAN_POINT('',(-4.5,-3.4,20.));
#1079=CARTESIAN_POINT('Origin',(-3.9,-3.4,20.));
#1080=CARTESIAN_POINT('',(-4.5,-3.4,0.));
#1081=CARTESIAN_POINT('Origin',(-4.5,-3.1,0.));
#1082=CARTESIAN_POINT('',(-4.5,-3.1,0.));
#1083=CARTESIAN_POINT('',(-4.5,-3.1,0.));
#1084=CARTESIAN_POINT('',(-4.5,-3.1,20.));
#1085=CARTESIAN_POINT('',(-4.5,-3.1,20.));
#1086=CARTESIAN_POINT('',(-4.5,-3.1,0.));
#1087=CARTESIAN_POINT('Origin',(-3.9,-3.1,0.));
#1088=CARTESIAN_POINT('',(-3.9,-2.5,0.));
#1089=CARTESIAN_POINT('Origin',(-3.9,-3.1,0.));
#1090=CARTESIAN_POINT('',(-3.9,-2.5,20.));
#1091=CARTESIAN_POINT('Origin',(-3.9,-3.1,20.));
#1092=CARTESIAN_POINT('',(-3.9,-2.5,0.));
#1093=CARTESIAN_POINT('Origin',(-3.8,-2.5,0.));
#1094=CARTESIAN_POINT('',(-3.8,-2.5,0.));
#1095=CARTESIAN_POINT('',(-3.9,-2.5,0.));
#1096=CARTESIAN_POINT('',(-3.8,-2.5,20.));
#1097=CARTESIAN_POINT('',(-3.9,-2.5,20.));
#1098=CARTESIAN_POINT('',(-3.8,-2.5,0.));
#1099=CARTESIAN_POINT('Origin',(-3.8,-2.2,0.));
#1100=CARTESIAN_POINT('',(-3.5,-2.2,0.));
#1101=CARTESIAN_POINT('Origin',(-3.8,-2.2,0.));
#1102=CARTESIAN_POINT('',(-3.5,-2.2,20.));
#1103=CARTESIAN_POINT('Origin',(-3.8,-2.2,20.));
#1104=CARTESIAN_POINT('',(-3.5,-2.2,0.));
#1105=CARTESIAN_POINT('Origin',(-3.49999999999999,-1.25000000000001,0.));
#1106=CARTESIAN_POINT('',(-3.49999999999999,-1.25000000000001,0.));
#1107=CARTESIAN_POINT('',(-3.49999999999999,-1.25000000000001,0.));
#1108=CARTESIAN_POINT('',(-3.49999999999999,-1.25000000000001,20.));
#1109=CARTESIAN_POINT('',(-3.49999999999999,-1.25000000000001,20.));
#1110=CARTESIAN_POINT('',(-3.49999999999999,-1.25000000000001,0.));
#1111=CARTESIAN_POINT('Origin',(-4.75000000000001,-1.25000000000001,0.));
#1112=CARTESIAN_POINT('',(-4.75,0.,0.));
#1113=CARTESIAN_POINT('Origin',(-4.75000000000001,-1.25000000000001,0.));
#1114=CARTESIAN_POINT('',(-4.75,0.,20.));
#1115=CARTESIAN_POINT('Origin',(-4.75000000000001,-1.25000000000001,20.));
#1116=CARTESIAN_POINT('',(-4.75,0.,0.));
#1117=CARTESIAN_POINT('Origin',(-5.5,0.,0.));
#1118=CARTESIAN_POINT('',(-5.5,5.55111512312578E-16,0.));
#1119=CARTESIAN_POINT('',(-5.5,0.,0.));
#1120=CARTESIAN_POINT('',(-5.5,5.55111512312578E-16,20.));
#1121=CARTESIAN_POINT('',(-5.5,0.,20.));
#1122=CARTESIAN_POINT('',(-5.5,5.55111512312578E-16,0.));
#1123=CARTESIAN_POINT('Origin',(-5.49999999999956,2.00000000000044,0.));
#1124=CARTESIAN_POINT('',(-7.5,2.,0.));
#1125=CARTESIAN_POINT('Origin',(-5.49999999999956,2.00000000000044,0.));
#1126=CARTESIAN_POINT('',(-7.5,2.,20.));
#1127=CARTESIAN_POINT('Origin',(-5.49999999999956,2.00000000000044,20.));
#1128=CARTESIAN_POINT('',(-7.5,2.,0.));
#1129=CARTESIAN_POINT('Ctrl Pts',(5.88071269445528E-17,5.5,0.));
#1130=CARTESIAN_POINT('Ctrl Pts',(5.88071269445528E-17,5.5,20.));
#1131=CARTESIAN_POINT('Ctrl Pts',(-0.698379883915763,5.5,0.));
#1132=CARTESIAN_POINT('Ctrl Pts',(-0.698379883915763,5.5,20.));
#1133=CARTESIAN_POINT('Ctrl Pts',(-1.98998909154195,5.45875342149769,0.));
#1134=CARTESIAN_POINT('Ctrl Pts',(-1.98998909154195,5.45875342149769,20.));
#1135=CARTESIAN_POINT('Ctrl Pts',(-3.61222441660431,5.27325550069272,0.));
#1136=CARTESIAN_POINT('Ctrl Pts',(-3.61222441660431,5.27325550069272,20.));
#1137=CARTESIAN_POINT('Ctrl Pts',(-5.22264577533019,4.81309570918317,0.));
#1138=CARTESIAN_POINT('Ctrl Pts',(-5.22264577533019,4.81309570918317,20.));
#1139=CARTESIAN_POINT('Ctrl Pts',(-6.55784055831071,4.00403276462209,0.));
#1140=CARTESIAN_POINT('Ctrl Pts',(-6.55784055831071,4.00403276462209,20.));
#1141=CARTESIAN_POINT('Ctrl Pts',(-7.19801866696609,3.24532395050692,0.));
#1142=CARTESIAN_POINT('Ctrl Pts',(-7.19801866696609,3.24532395050692,20.));
#1143=CARTESIAN_POINT('Ctrl Pts',(-7.44507272218676,2.63667541877323,0.));
#1144=CARTESIAN_POINT('Ctrl Pts',(-7.44507272218676,2.63667541877323,20.));
#1145=CARTESIAN_POINT('Ctrl Pts',(-7.49999985590154,2.21489517058209,0.));
#1146=CARTESIAN_POINT('Ctrl Pts',(-7.49999985590154,2.21489517058209,20.));
#1147=CARTESIAN_POINT('Ctrl Pts',(-7.5,2.,0.));
#1148=CARTESIAN_POINT('Ctrl Pts',(-7.5,2.,20.));
#1149=CARTESIAN_POINT('',(-5.88071269445528E-17,5.5,0.));
#1150=CARTESIAN_POINT('Ctrl Pts',(-7.5,2.,0.));
#1151=CARTESIAN_POINT('Ctrl Pts',(-7.49999985590154,2.21489517058209,0.));
#1152=CARTESIAN_POINT('Ctrl Pts',(-7.44507272218676,2.63667541877323,0.));
#1153=CARTESIAN_POINT('Ctrl Pts',(-7.19801866696609,3.24532395050692,0.));
#1154=CARTESIAN_POINT('Ctrl Pts',(-6.55784055831071,4.00403276462209,0.));
#1155=CARTESIAN_POINT('Ctrl Pts',(-5.22264577533019,4.81309570918317,0.));
#1156=CARTESIAN_POINT('Ctrl Pts',(-3.61222441660431,5.27325550069272,0.));
#1157=CARTESIAN_POINT('Ctrl Pts',(-1.98998909154195,5.45875342149769,0.));
#1158=CARTESIAN_POINT('Ctrl Pts',(-0.698379883915763,5.5,0.));
#1159=CARTESIAN_POINT('Ctrl Pts',(5.88071269445528E-17,5.5,0.));
#1160=CARTESIAN_POINT('',(0.,5.5,20.));
#1161=CARTESIAN_POINT('Ctrl Pts',(5.88071269445528E-17,5.5,20.));
#1162=CARTESIAN_POINT('Ctrl Pts',(-0.698379883915763,5.5,20.));
#1163=CARTESIAN_POINT('Ctrl Pts',(-1.98998909154195,5.45875342149769,20.));
#1164=CARTESIAN_POINT('Ctrl Pts',(-3.61222441660431,5.27325550069272,20.));
#1165=CARTESIAN_POINT('Ctrl Pts',(-5.22264577533019,4.81309570918317,20.));
#1166=CARTESIAN_POINT('Ctrl Pts',(-6.55784055831071,4.00403276462209,20.));
#1167=CARTESIAN_POINT('Ctrl Pts',(-7.19801866696609,3.24532395050692,20.));
#1168=CARTESIAN_POINT('Ctrl Pts',(-7.44507272218676,2.63667541877323,20.));
#1169=CARTESIAN_POINT('Ctrl Pts',(-7.49999985590154,2.21489517058209,20.));
#1170=CARTESIAN_POINT('Ctrl Pts',(-7.5,2.,20.));
#1171=CARTESIAN_POINT('',(-5.88071269445528E-17,5.5,0.));
#1172=CARTESIAN_POINT('Ctrl Pts',(7.5,2.,0.));
#1173=CARTESIAN_POINT('Ctrl Pts',(7.5,2.,20.));
#1174=CARTESIAN_POINT('Ctrl Pts',(7.49999985590154,2.21489517058209,0.));
#1175=CARTESIAN_POINT('Ctrl Pts',(7.49999985590154,2.21489517058209,20.));
#1176=CARTESIAN_POINT('Ctrl Pts',(7.44507272218676,2.63667541877323,0.));
#1177=CARTESIAN_POINT('Ctrl Pts',(7.44507272218676,2.63667541877323,20.));
#1178=CARTESIAN_POINT('Ctrl Pts',(7.19801866696609,3.24532395050692,0.));
#1179=CARTESIAN_POINT('Ctrl Pts',(7.19801866696609,3.24532395050692,20.));
#1180=CARTESIAN_POINT('Ctrl Pts',(6.55784055831071,4.00403276462209,0.));
#1181=CARTESIAN_POINT('Ctrl Pts',(6.55784055831071,4.00403276462209,20.));
#1182=CARTESIAN_POINT('Ctrl Pts',(5.22264577533019,4.81309570918317,0.));
#1183=CARTESIAN_POINT('Ctrl Pts',(5.22264577533019,4.81309570918317,20.));
#1184=CARTESIAN_POINT('Ctrl Pts',(3.61222441660431,5.27325550069272,0.));
#1185=CARTESIAN_POINT('Ctrl Pts',(3.61222441660431,5.27325550069272,20.));
#1186=CARTESIAN_POINT('Ctrl Pts',(1.98998909154195,5.45875342149769,0.));
#1187=CARTESIAN_POINT('Ctrl Pts',(1.98998909154195,5.45875342149769,20.));
#1188=CARTESIAN_POINT('Ctrl Pts',(0.698379883915763,5.5,0.));
#1189=CARTESIAN_POINT('Ctrl Pts',(0.698379883915763,5.5,20.));
#1190=CARTESIAN_POINT('Ctrl Pts',(-5.88071269445528E-17,5.5,0.));
#1191=CARTESIAN_POINT('Ctrl Pts',(-5.88071269445528E-17,5.5,20.));
#1192=CARTESIAN_POINT('',(7.5,2.,0.));
#1193=CARTESIAN_POINT('Ctrl Pts',(7.5,2.,0.));
#1194=CARTESIAN_POINT('Ctrl Pts',(7.49999985590154,2.21489517058209,0.));
#1195=CARTESIAN_POINT('Ctrl Pts',(7.44507272218676,2.63667541877323,0.));
#1196=CARTESIAN_POINT('Ctrl Pts',(7.19801866696609,3.24532395050692,0.));
#1197=CARTESIAN_POINT('Ctrl Pts',(6.55784055831071,4.00403276462209,0.));
#1198=CARTESIAN_POINT('Ctrl Pts',(5.22264577533019,4.81309570918317,0.));
#1199=CARTESIAN_POINT('Ctrl Pts',(3.61222441660431,5.27325550069272,0.));
#1200=CARTESIAN_POINT('Ctrl Pts',(1.98998909154195,5.45875342149769,0.));
#1201=CARTESIAN_POINT('Ctrl Pts',(0.698379883915763,5.5,0.));
#1202=CARTESIAN_POINT('Ctrl Pts',(-5.88071269445528E-17,5.5,0.));
#1203=CARTESIAN_POINT('',(7.5,2.,20.));
#1204=CARTESIAN_POINT('Ctrl Pts',(7.5,2.,20.));
#1205=CARTESIAN_POINT('Ctrl Pts',(7.49999985590154,2.21489517058209,20.));
#1206=CARTESIAN_POINT('Ctrl Pts',(7.44507272218676,2.63667541877323,20.));
#1207=CARTESIAN_POINT('Ctrl Pts',(7.19801866696609,3.24532395050692,20.));
#1208=CARTESIAN_POINT('Ctrl Pts',(6.55784055831071,4.00403276462209,20.));
#1209=CARTESIAN_POINT('Ctrl Pts',(5.22264577533019,4.81309570918317,20.));
#1210=CARTESIAN_POINT('Ctrl Pts',(3.61222441660431,5.27325550069272,20.));
#1211=CARTESIAN_POINT('Ctrl Pts',(1.98998909154195,5.45875342149769,20.));
#1212=CARTESIAN_POINT('Ctrl Pts',(0.698379883915763,5.5,20.));
#1213=CARTESIAN_POINT('Ctrl Pts',(-5.88071269445528E-17,5.5,20.));
#1214=CARTESIAN_POINT('',(7.5,2.,0.));
#1215=CARTESIAN_POINT('Origin',(5.49999999999956,2.00000000000044,0.));
#1216=CARTESIAN_POINT('',(5.5,0.,0.));
#1217=CARTESIAN_POINT('Origin',(5.49999999999956,2.00000000000044,0.));
#1218=CARTESIAN_POINT('',(5.5,0.,20.));
#1219=CARTESIAN_POINT('Origin',(5.49999999999956,2.00000000000044,20.));
#1220=CARTESIAN_POINT('',(5.5,0.,0.));
#1221=CARTESIAN_POINT('Origin',(4.75,0.,0.));
#1222=CARTESIAN_POINT('',(4.75,0.,0.));
#1223=CARTESIAN_POINT('',(5.5,0.,0.));
#1224=CARTESIAN_POINT('',(4.75,0.,20.));
#1225=CARTESIAN_POINT('',(5.5,0.,20.));
#1226=CARTESIAN_POINT('',(4.75,0.,0.));
#1227=CARTESIAN_POINT('Origin',(4.75000000000002,-1.25000000000001,0.));
#1228=CARTESIAN_POINT('',(3.49999999999999,-1.25000000000001,0.));
#1229=CARTESIAN_POINT('Origin',(4.75000000000002,-1.25000000000001,0.));
#1230=CARTESIAN_POINT('',(3.49999999999999,-1.25000000000001,20.));
#1231=CARTESIAN_POINT('Origin',(4.75000000000002,-1.25000000000001,20.));
#1232=CARTESIAN_POINT('',(3.49999999999999,-1.25000000000001,0.));
#1233=CARTESIAN_POINT('Origin',(3.5,-2.2,0.));
#1234=CARTESIAN_POINT('',(3.5,-2.2,0.));
#1235=CARTESIAN_POINT('',(3.49999999999999,-1.25000000000001,0.));
#1236=CARTESIAN_POINT('',(3.5,-2.2,20.));
#1237=CARTESIAN_POINT('',(3.49999999999999,-1.25000000000001,20.));
#1238=CARTESIAN_POINT('',(3.5,-2.2,0.));
#1239=CARTESIAN_POINT('Origin',(3.8,-2.2,0.));
#1240=CARTESIAN_POINT('',(3.8,-2.5,0.));
#1241=CARTESIAN_POINT('Origin',(3.8,-2.2,0.));
#1242=CARTESIAN_POINT('',(3.8,-2.5,20.));
#1243=CARTESIAN_POINT('Origin',(3.8,-2.2,20.));
#1244=CARTESIAN_POINT('',(3.8,-2.5,0.));
#1245=CARTESIAN_POINT('Origin',(3.9,-2.5,0.));
#1246=CARTESIAN_POINT('',(3.9,-2.5,0.));
#1247=CARTESIAN_POINT('',(3.9,-2.5,0.));
#1248=CARTESIAN_POINT('',(3.9,-2.5,20.));
#1249=CARTESIAN_POINT('',(3.9,-2.5,20.));
#1250=CARTESIAN_POINT('',(3.9,-2.5,0.));
#1251=CARTESIAN_POINT('Origin',(3.9,-3.1,0.));
#1252=CARTESIAN_POINT('',(4.5,-3.1,0.));
#1253=CARTESIAN_POINT('Origin',(3.9,-3.1,0.));
#1254=CARTESIAN_POINT('',(4.5,-3.1,20.));
#1255=CARTESIAN_POINT('Origin',(3.9,-3.1,20.));
#1256=CARTESIAN_POINT('',(4.5,-3.1,0.));
#1257=CARTESIAN_POINT('Origin',(4.5,-3.4,0.));
#1258=CARTESIAN_POINT('',(4.5,-3.4,0.));
#1259=CARTESIAN_POINT('',(4.5,-3.1,0.));
#1260=CARTESIAN_POINT('',(4.5,-3.4,20.));
#1261=CARTESIAN_POINT('',(4.5,-3.1,20.));
#1262=CARTESIAN_POINT('',(4.5,-3.4,0.));
#1263=CARTESIAN_POINT('Origin',(3.9,-3.4,0.));
#1264=CARTESIAN_POINT('',(3.9,-4.,0.));
#1265=CARTESIAN_POINT('Origin',(3.9,-3.4,0.));
#1266=CARTESIAN_POINT('',(3.9,-4.,20.));
#1267=CARTESIAN_POINT('Origin',(3.9,-3.4,20.));
#1268=CARTESIAN_POINT('',(3.9,-4.,0.));
#1269=CARTESIAN_POINT('Origin',(3.2,-4.,0.));
#1270=CARTESIAN_POINT('',(3.2,-4.,0.));
#1271=CARTESIAN_POINT('',(3.9,-4.,0.));
#1272=CARTESIAN_POINT('',(3.2,-4.,20.));
#1273=CARTESIAN_POINT('',(3.9,-4.,20.));
#1274=CARTESIAN_POINT('',(3.2,-4.,0.));
#1275=CARTESIAN_POINT('Origin',(3.2,-3.4,0.));
#1276=CARTESIAN_POINT('',(2.6,-3.4,0.));
#1277=CARTESIAN_POINT('Origin',(3.2,-3.4,0.));
#1278=CARTESIAN_POINT('',(2.6,-3.4,20.));
#1279=CARTESIAN_POINT('Origin',(3.2,-3.4,20.));
#1280=CARTESIAN_POINT('',(2.6,-3.4,0.));
#1281=CARTESIAN_POINT('Origin',(2.6,-1.25000000000001,0.));
#1282=CARTESIAN_POINT('',(2.6,-1.25000000000001,0.));
#1283=CARTESIAN_POINT('',(2.6,-1.25000000000001,0.));
#1284=CARTESIAN_POINT('',(2.6,-1.25000000000001,20.));
#1285=CARTESIAN_POINT('',(2.6,-1.25000000000001,20.));
#1286=CARTESIAN_POINT('',(2.6,-1.25000000000001,0.));
#1287=CARTESIAN_POINT('Origin',(4.75000000000001,-1.25000000000001,0.));
#1288=CARTESIAN_POINT('',(4.75000000000001,0.899999999999997,0.));
#1289=CARTESIAN_POINT('Origin',(4.75000000000001,-1.25000000000001,0.));
#1290=CARTESIAN_POINT('',(4.75000000000001,0.899999999999997,20.));
#1291=CARTESIAN_POINT('Origin',(4.75000000000001,-1.25000000000001,20.));
#1292=CARTESIAN_POINT('',(4.75000000000001,0.899999999999997,0.));
#1293=CARTESIAN_POINT('Origin',(5.49999904655472,0.899999999999996,0.));
#1294=CARTESIAN_POINT('',(5.49999904655472,0.899999999999996,0.));
#1295=CARTESIAN_POINT('',(5.49999904655472,0.899999999999996,20.));
#1296=CARTESIAN_POINT('Origin',(0.,0.75,20.));
#1297=CARTESIAN_POINT('Origin',(0.,0.75,0.));
#1298=UNCERTAINTY_MEASURE_WITH_UNIT(LENGTH_MEASURE(0.01),#1302,
'DISTANCE_ACCURACY_VALUE',
'Maximum model space distance between geometric entities at asserted c
onnectivities');
#1299=UNCERTAINTY_MEASURE_WITH_UNIT(LENGTH_MEASURE(0.01),#1302,
'DISTANCE_ACCURACY_VALUE',
'Maximum model space distance between geometric entities at asserted c
onnectivities');
#1300=(
GEOMETRIC_REPRESENTATION_CONTEXT(3)
GLOBAL_UNCERTAINTY_ASSIGNED_CONTEXT((#1298))
GLOBAL_UNIT_ASSIGNED_CONTEXT((#1302,#1304,#1305))
REPRESENTATION_CONTEXT('','3D')
);
#1301=(
GEOMETRIC_REPRESENTATION_CONTEXT(3)
GLOBAL_UNCERTAINTY_ASSIGNED_CONTEXT((#1299))
GLOBAL_UNIT_ASSIGNED_CONTEXT((#1302,#1304,#1305))
REPRESENTATION_CONTEXT('','3D')
);
#1302=(
LENGTH_UNIT()
NAMED_UNIT(*)
SI_UNIT(.MILLI.,.METRE.)
);
#1303=(
LENGTH_UNIT()
NAMED_UNIT(*)
SI_UNIT($,.METRE.)
);
#1304=(
NAMED_UNIT(*)
PLANE_ANGLE_UNIT()
SI_UNIT($,.RADIAN.)
);
#1305=(
NAMED_UNIT(*)
SI_UNIT($,.STERADIAN.)
SOLID_ANGLE_UNIT()
);
#1306=SHAPE_DEFINITION_REPRESENTATION(#1307,#1308);
#1307=PRODUCT_DEFINITION_SHAPE('',$,#1310);
#1308=SHAPE_REPRESENTATION('',(#710),#1300);
#1309=PRODUCT_DEFINITION_CONTEXT('part definition',#1314,'design');
#1310=PRODUCT_DEFINITION('2026-07-24-06-58-02-047',
'Wire_Guide_for_20mm_Extrusion',#1311,#1309);
#1311=PRODUCT_DEFINITION_FORMATION('',$,#1316);
#1312=PRODUCT_RELATED_PRODUCT_CATEGORY('Wire_Guide_for_20mm_Extrusion',
'Wire_Guide_for_20mm_Extrusion',(#1316));
#1313=APPLICATION_PROTOCOL_DEFINITION('international standard',
'automotive_design',2009,#1314);
#1314=APPLICATION_CONTEXT(
'Core Data for Automotive Mechanical Design Process');
#1315=PRODUCT_CONTEXT('part definition',#1314,'mechanical');
#1316=PRODUCT('2026-07-24-06-58-02-047','Wire_Guide_for_20mm_Extrusion',
$,(#1315));
#1317=PRESENTATION_STYLE_ASSIGNMENT((#1318));
#1318=SURFACE_STYLE_USAGE(.BOTH.,#1319);
#1319=SURFACE_SIDE_STYLE('',(#1320));
#1320=SURFACE_STYLE_FILL_AREA(#1321);
#1321=FILL_AREA_STYLE('Steel - Satin',(#1322));
#1322=FILL_AREA_STYLE_COLOUR('Steel - Satin',#1323);
#1323=COLOUR_RGB('Steel - Satin',0.627450980392157,0.627450980392157,0.627450980392157);
ENDSEC;
END-ISO-10303-21;
